<svg data-v-fde0c5aa="" xmlns="http://www.w3.org/2000/svg" viewBox="0 0 300 300" class="iconLeft"><!----><defs data-v-fde0c5aa=""><!----></defs><rect data-v-fde0c5aa="" fill="transparent" x="0" y="0" width="300px" height="300px" class="logo-background-square"></rect><defs data-v-fde0c5aa=""><!----></defs><g data-v-fde0c5aa="" id="6c86ecaa-ff1f-4174-8971-21a704dfe664" fill="#000000" transform="matrix(4.073600310280561,0,0,4.073600310280561,113.39112285170972,114.74298943106838)"><path d="M1.06 6.33L1.06 13.73L2.39 13.73L2.39 6.33ZM1.72 3.50C1.27 3.50 0.97 3.82 0.97 4.30C0.97 4.76 1.27 5.10 1.72 5.10C2.17 5.10 2.49 4.76 2.49 4.30C2.49 3.82 2.17 3.50 1.72 3.50ZM3.81 4.05L3.81 5.38L6.75 5.38L6.75 13.73L8.18 13.73L8.18 5.38L11.09 5.38L11.09 4.05ZM14.45 6.15C12.61 6.15 11.31 7.49 11.31 10.02C11.31 12.57 12.60 13.92 14.45 13.92C16.27 13.92 17.57 12.57 17.57 10.02C17.57 7.49 16.25 6.15 14.45 6.15ZM14.45 7.38C15.54 7.38 16.31 8.29 16.31 10.04C16.31 11.77 15.54 12.68 14.45 12.68C13.33 12.68 12.59 11.77 12.59 10.04C12.59 8.29 13.34 7.38 14.45 7.38ZM22.30 6.15C20.47 6.15 19.17 7.49 19.17 10.02C19.17 12.57 20.45 13.92 22.30 13.92C24.12 13.92 25.42 12.57 25.42 10.02C25.42 7.49 24.11 6.15 22.30 6.15ZM22.30 7.38C23.39 7.38 24.16 8.29 24.16 10.04C24.16 11.77 23.39 12.68 22.30 12.68C21.18 12.68 20.44 11.77 20.44 10.04C20.44 8.29 21.20 7.38 22.30 7.38ZM27.29 3.84L27.29 13.73L28.62 13.73L28.62 3.39ZM35.83 7.13C35.32 6.64 34.38 6.15 33.12 6.15C31.54 6.15 30.37 6.92 30.37 8.27C30.37 9.09 30.79 9.60 31.42 9.91C32.05 10.22 33.08 10.40 33.88 10.72C34.44 10.95 34.68 11.19 34.68 11.59C34.68 12.31 33.98 12.68 33.03 12.68C32.02 12.68 31.11 12.25 30.58 11.75L30.06 12.87C30.60 13.41 31.68 13.92 33.04 13.92C34.51 13.92 35.99 13.33 35.99 11.59C35.99 10.74 35.63 10.25 34.87 9.87C34.05 9.46 32.97 9.30 32.31 9.02C31.92 8.85 31.68 8.62 31.68 8.25C31.68 7.74 32.13 7.34 33.07 7.34C34.02 7.34 34.85 7.76 35.34 8.27Z"></path></g><defs data-v-fde0c5aa=""><linearGradient data-v-fde0c5aa="" gradientTransform="rotate(25)" id="f0ba5dc8-3d83-4b77-a81b-f51d552852ff" x1="0%" y1="0%" x2="100%" y2="0%"><stop data-v-fde0c5aa="" offset="0%" stop-color="#288B58" stop-opacity="1"></stop><stop data-v-fde0c5aa="" offset="100%" stop-color="#1522F1" stop-opacity="1"></stop></linearGradient></defs><g data-v-fde0c5aa="" id="b189bee8-7a37-43d2-a51f-2370f394ecfc" stroke="none" fill="url(#f0ba5dc8-3d83-4b77-a81b-f51d552852ff)" transform="matrix(2.010703602163391,0,0,2.010703602163391,40,117.82874236538575)"><path d="M0 16.024L15.976 32 32 15.976 16.024 0 0 16.024zm15.989 7.323l-7.336-7.336 14.694-.022-7.358 7.358z"></path></g><!----></svg>